# xmcd
#
# Track frame offsets:
#  150
#  15599
#  28200
#  46510
#  62753
#  77188
#  92952
#  107380
#  126800
#  142062
#  158268
#  176421
#
# Disc length: 2544 seconds
#
# Revision: 0
# Processed by: cddbd v1.5.1PL2 Copyright (c) Steve Scherf et al.
# Submitted via: Collectorz.com_Music_Collector 6.11
#
DISCID=8e09ee0c
DTITLE=Buncombe Turnpike - Picker's Paradise
DYEAR=2006
DGENRE=Bluegrass
TTITLE0=Picker's Paradise
TTITLE1=Intent to Deceive
TTITLE2=The Man at the River
TTITLE3=Red Tailed Hawk
TTITLE4=Rough and Rowdy
TTITLE5=What Tomorrow Holds
TTITLE6=No Time at All
TTITLE7=Waltz for Carrie
TTITLE8=Love of the Mountains
TTITLE9=There Is a Time
TTITLE10=Miner's Prayer
TTITLE11=Cindy
EXTD=
EXTT0=
EXTT1=
EXTT2=
EXTT3=
EXTT4=
EXTT5=
EXTT6=
EXTT7=
EXTT8=
EXTT9=
EXTT10=
EXTT11=
PLAYORDER=
